{
	"asset":{
		"generator":"Khronos glTF Blender I/O v4.2.57",
		"version":"2.0"
	},
	"extensionsUsed":[
		"KHR_lights_punctual",
		"KHR_materials_specular"
	],
	"extensionsRequired":[
		"KHR_lights_punctual"
	],
	"extensions":{
		"KHR_lights_punctual":{
			"lights":[
				{
					"color":[
						1,
						1,
						1
					],
					"intensity":293.5022748415486,
					"type":"point",
					"name":"Light"
				}
			]
		}
	},
	"scene":0,
	"scenes":[
		{
			"name":"Scene",
			"nodes":[
				0,
				3
			]
		}
	],
	"nodes":[
		{
			"extensions":{
				"KHR_lights_punctual":{
					"light":0
				}
			},
			"name":"Light",
			"rotation":[
				-0.28416627645492554,
				0.7269423007965088,
				0.34203392267227173,
				0.5232754945755005
			],
			"translation":[
				-0.024881839752197266,
				0.7023136019706726,
				-0.04575492814183235
			]
		},
		{
			"name":"freightelevator",
			"rotation":[
				-1.6788608547813055e-07,
				0,
				0,
				1
			]
		},
		{
			"mesh":0,
			"name":"freightelevator.mdl/freightelevator_reference.smd",
			"skin":0
		},
		{
			"children":[
				2,
				1
			],
			"name":"freightelevator.mdl",
			"scale":[
				0.009999999776482582,
				0.009999999776482582,
				0.009999999776482582
			]
		}
	],
	"materials":[
		{
			"doubleSided":true,
			"emissiveTexture":{
				"index":0
			},
			"extensions":{
				"KHR_materials_specular":{
					"specularFactor":0.20000000298023224
				}
			},
			"extras":{
				"path_id":"materials/models/props_lab/freightelevator_sheet"
			},
			"name":"materials/models/props_lab/freightelevator_sheet",
			"pbrMetallicRoughness":{
				"baseColorTexture":{
					"index":1
				},
				"metallicFactor":0,
				"roughnessFactor":0.8999999761581421
			}
		}
	],
	"meshes":[
		{
			"extras":{
				"path_id":"freightelevator.mdl/freightelevator_reference.smd"
			},
			"name":"freightelevator.mdl/freightelevator_reference.smd",
			"primitives":[
				{
					"attributes":{
						"POSITION":0,
						"NORMAL":1,
						"TEXCOORD_0":2,
						"JOINTS_0":3,
						"WEIGHTS_0":4
					},
					"indices":5,
					"material":0
				}
			]
		}
	],
	"textures":[
		{
			"sampler":0,
			"source":0
		},
		{
			"sampler":0,
			"source":0
		}
	],
	"images":[
		{
			"mimeType":"image/png",
			"name":"materials/models/props_lab/freightelevator_sheet",
			"uri":"materialsmodelsprops_labfreightelevator_sheet.png"
		}
	],
	"skins":[
		{
			"inverseBindMatrices":6,
			"joints":[
				1
			],
			"name":"freightelevator.mdl"
		}
	],
	"accessors":[
		{
			"bufferView":0,
			"componentType":5126,
			"count":1676,
			"max":[
				0.8608880639076233,
				1.7400000095367432,
				0.7386095523834229
			],
			"min":[
				-0.8608880639076233,
				-3.000000603492481e-08,
				-0.7199999690055847
			],
			"type":"VEC3"
		},
		{
			"bufferView":1,
			"componentType":5126,
			"count":1676,
			"type":"VEC3"
		},
		{
			"bufferView":2,
			"componentType":5126,
			"count":1676,
			"type":"VEC2"
		},
		{
			"bufferView":3,
			"componentType":5121,
			"count":1676,
			"type":"VEC4"
		},
		{
			"bufferView":4,
			"componentType":5126,
			"count":1676,
			"type":"VEC4"
		},
		{
			"bufferView":5,
			"componentType":5123,
			"count":3552,
			"type":"SCALAR"
		},
		{
			"bufferView":6,
			"componentType":5126,
			"count":1,
			"type":"MAT4"
		}
	],
	"bufferViews":[
		{
			"buffer":0,
			"byteLength":20112,
			"byteOffset":0,
			"target":34962
		},
		{
			"buffer":0,
			"byteLength":20112,
			"byteOffset":20112,
			"target":34962
		},
		{
			"buffer":0,
			"byteLength":13408,
			"byteOffset":40224,
			"target":34962
		},
		{
			"buffer":0,
			"byteLength":6704,
			"byteOffset":53632,
			"target":34962
		},
		{
			"buffer":0,
			"byteLength":26816,
			"byteOffset":60336,
			"target":34962
		},
		{
			"buffer":0,
			"byteLength":7104,
			"byteOffset":87152,
			"target":34963
		},
		{
			"buffer":0,
			"byteLength":64,
			"byteOffset":94256
		}
	],
	"samplers":[
		{
			"magFilter":9729,
			"minFilter":9987
		}
	],
	"buffers":[
		{
			"byteLength":94320,
			"uri":"untitled.bin"
		}
	]
}
